<?xml version="1.0" encoding="utf-8"?>

<svg xmlns="http://www.w3.org/2000/svg" xmlns:xlink="http://www.w3.org/1999/xlink" width="24px" height="24px" viewBox="0 0 24 24">
			<path d="M15,18c-0.3,0-0.5-0.1-0.7-0.3c-0.4-0.4-0.4-1,0-1.4l5-5c0.4-0.4,1-0.4,1.4,0s0.4,1,0,1.4l-5,5C15.5,17.9,15.3,18,15,18z"/>
			<path d="M20,13c-0.3,0-0.5-0.1-0.7-0.3l-5-5c-0.4-0.4-0.4-1,0-1.4s1-0.4,1.4,0l5,5c0.4,0.4,0.4,1,0,1.4C20.5,12.9,20.3,13,20,13z"/>
			<path d="M20,13H4c-0.6,0-1-0.4-1-1s0.4-1,1-1h16c0.6,0,1,0.4,1,1S20.6,13,20,13z"/>
</svg>
